<mxfile host="app.diagrams.net" agent="Mozilla/5.0 (Windows NT 10.0; Win64; x64) AppleWebKit/537.36 (KHTML, like Gecko) Chrome/138.0.0.0 Safari/537.36" version="27.2.0">
  <diagram name="Trang-1" id="_f1Kf59icp_-G9UOPldv">
    <mxGraphModel dx="1026" dy="516" grid="1" gridSize="10" guides="1" tooltips="1" connect="1" arrows="1" fold="1" page="1" pageScale="1" pageWidth="827" pageHeight="1169" math="0" shadow="0">
      <root>
        <mxCell id="0" />
        <mxCell id="1" parent="0" />
        <mxCell id="S4pjXVJlkhhgMOpGVdfD-1" value="Begin" style="ellipse;whiteSpace=wrap;html=1;" vertex="1" parent="1">
          <mxGeometry x="95" width="120" height="80" as="geometry" />
        </mxCell>
        <mxCell id="S4pjXVJlkhhgMOpGVdfD-2" value="Input A = Đô la Mỹ" style="shape=parallelogram;perimeter=parallelogramPerimeter;whiteSpace=wrap;html=1;fixedSize=1;" vertex="1" parent="1">
          <mxGeometry x="85" y="150" width="140" height="60" as="geometry" />
        </mxCell>
        <mxCell id="S4pjXVJlkhhgMOpGVdfD-3" value="B = A*23000" style="rounded=0;whiteSpace=wrap;html=1;" vertex="1" parent="1">
          <mxGeometry x="85" y="250" width="120" height="60" as="geometry" />
        </mxCell>
        <mxCell id="S4pjXVJlkhhgMOpGVdfD-6" value="Output Display Việt Nam Đồng = B" style="shape=parallelogram;perimeter=parallelogramPerimeter;whiteSpace=wrap;html=1;fixedSize=1;" vertex="1" parent="1">
          <mxGeometry x="40" y="340" width="210" height="60" as="geometry" />
        </mxCell>
        <mxCell id="S4pjXVJlkhhgMOpGVdfD-10" value="End" style="ellipse;whiteSpace=wrap;html=1;" vertex="1" parent="1">
          <mxGeometry x="85" y="450" width="120" height="80" as="geometry" />
        </mxCell>
        <mxCell id="S4pjXVJlkhhgMOpGVdfD-11" value="" style="endArrow=classic;html=1;rounded=0;" edge="1" parent="1">
          <mxGeometry width="50" height="50" relative="1" as="geometry">
            <mxPoint x="154.29" y="90" as="sourcePoint" />
            <mxPoint x="154.29" y="130" as="targetPoint" />
          </mxGeometry>
        </mxCell>
        <mxCell id="S4pjXVJlkhhgMOpGVdfD-16" value="" style="endArrow=classic;html=1;rounded=0;" edge="1" parent="1">
          <mxGeometry width="50" height="50" relative="1" as="geometry">
            <mxPoint x="154.29" y="210" as="sourcePoint" />
            <mxPoint x="154.29" y="250" as="targetPoint" />
          </mxGeometry>
        </mxCell>
        <mxCell id="S4pjXVJlkhhgMOpGVdfD-18" value="" style="endArrow=classic;html=1;rounded=0;" edge="1" parent="1">
          <mxGeometry width="50" height="50" relative="1" as="geometry">
            <mxPoint x="144.57999999999998" y="310" as="sourcePoint" />
            <mxPoint x="144.57999999999998" y="350" as="targetPoint" />
          </mxGeometry>
        </mxCell>
        <mxCell id="S4pjXVJlkhhgMOpGVdfD-19" value="" style="endArrow=classic;html=1;rounded=0;" edge="1" parent="1">
          <mxGeometry width="50" height="50" relative="1" as="geometry">
            <mxPoint x="144.57999999999998" y="400" as="sourcePoint" />
            <mxPoint x="144.57999999999998" y="440" as="targetPoint" />
          </mxGeometry>
        </mxCell>
        <mxCell id="S4pjXVJlkhhgMOpGVdfD-20" value="&lt;h1 style=&quot;margin-top: 0px;&quot;&gt;Flow-Chart&lt;/h1&gt;&lt;div&gt;Begin&lt;/div&gt;&lt;div&gt;Input A&amp;nbsp;&lt;/div&gt;&lt;div&gt;&lt;span style=&quot;background-color: transparent; color: light-dark(rgb(0, 0, 0), rgb(255, 255, 255));&quot;&gt;B = A*23000&lt;/span&gt;&lt;/div&gt;&lt;div&gt;Output Display B&lt;/div&gt;&lt;div&gt;End&lt;/div&gt;&lt;div&gt;&lt;br&gt;&lt;/div&gt;" style="text;html=1;whiteSpace=wrap;overflow=hidden;rounded=0;" vertex="1" parent="1">
          <mxGeometry x="310" y="20" width="340" height="420" as="geometry" />
        </mxCell>
      </root>
    </mxGraphModel>
  </diagram>
</mxfile>
